<?xml version="1.0" encoding="utf-8"?>
<!-- Generator: Adobe Illustrator 24.0.1, SVG Export Plug-In . SVG Version: 6.00 Build 0)  -->
<svg version="1.1" id="Calque_1" xmlns="http://www.w3.org/2000/svg" xmlns:xlink="http://www.w3.org/1999/xlink" x="0px" y="0px"
	 viewBox="0 0 500 500" style="enable-background:new 0 0 500 500;" xml:space="preserve">
<path d="M414.4,248.8c-6.2-0.8-12.6-1.2-19-1.2c-78.8,0-143-64.1-143-142.9c0-6.4-0.4-12.7-1.2-19l-1.2-9.2l-1.2,9.2
	c-0.8,6.2-1.2,12.6-1.2,19c0,78.8-64.1,142.9-143,142.9c-6.4,0-12.7,0.4-19,1.2l-9.2,1.2l9.2,1.2c6.2,0.8,12.6,1.2,19,1.2
	c78.8,0,143,64.1,143,143c0,6.4,0.4,12.7,1.2,19l1.2,9.2l1.2-9.2c0.8-6.2,1.2-12.6,1.2-19c0-78.8,64.1-143,143-143
	c6.4,0,12.7-0.4,19-1.2l9.2-1.2L414.4,248.8z M368.7,250C308.4,261,261,308.3,250,368.7C239,308.3,191.6,261,131.3,250
	C191.6,239,239,191.6,250,131.3C261,191.6,308.4,239,368.7,250z"/>
</svg>
