<svg id="Calque_1" data-name="Calque 1" xmlns="http://www.w3.org/2000/svg" viewBox="0 0 347.2 347.18">
    <defs>
        <style>
            .cls-2 {
                fill: #1d1d1b;
            }
        </style>
    </defs>
    <title>star-background</title>
    <path class="cls-1"
        d="M368.67,250A147.7,147.7,0,0,0,250,368.66,147.7,147.7,0,0,0,131.33,250,147.73,147.73,0,0,0,250,131.34,147.71,147.71,0,0,0,368.67,250Z"
        transform="translate(-76.4 -76.41)" />
    <path class="cls-2"
        d="M414.36,248.78a147.64,147.64,0,0,0-19-1.22c-78.83,0-143-64.13-143-142.94a145.86,145.86,0,0,0-1.23-19L250,76.41l-1.21,9.24a147.64,147.64,0,0,0-1.22,19c0,78.81-64.13,142.94-143,142.94a147.6,147.6,0,0,0-19,1.22L76.4,250l9.24,1.2a145.83,145.83,0,0,0,19,1.23c78.84,0,143,64.13,143,143a147.64,147.64,0,0,0,1.22,19l1.21,9.24,1.2-9.24a145.86,145.86,0,0,0,1.23-19c0-78.83,64.13-143,143-143a145.86,145.86,0,0,0,19-1.23l9.24-1.2ZM250,368.66A147.7,147.7,0,0,0,131.33,250,147.73,147.73,0,0,0,250,131.34,147.71,147.71,0,0,0,368.67,250,147.7,147.7,0,0,0,250,368.66Z"
        transform="translate(-76.4 -76.41)" />
</svg>